<?xml version="1.0" encoding="utf-8"?>
<!-- Generator: Adobe Illustrator 19.0.0, SVG Export Plug-In . SVG Version: 6.00 Build 0)  -->
<svg version="1.1" id="Layer_1" xmlns="http://www.w3.org/2000/svg" xmlns:xlink="http://www.w3.org/1999/xlink" x="0px" y="0px"
	 viewBox="-859 441 200 200" style="enable-background:new -859 441 200 200;" xml:space="preserve">
<style type="text/css">
	.st0{fill:#FFFFFF;}
	.st1{fill:#6AC9C8;}
</style>
<path class="st0" d="M-772.4,483.9h-41.2v113.7h40.8c48,2.3,68.4-26.7,68.4-57C-704.4,508.1-726,482.5-772.4,483.9z M-767,567.7
	h-16.4v-53.8h16.6c18.5,0,27.4,11.5,27.4,26.9C-739.4,555.1-749.7,567.7-767,567.7z"/>
<polygon class="st1" points="-855.1,636.3 -798.1,636.3 -798.1,613.2 -832,613.2 -832,468.4 -798.5,468.4 -798.5,445.3 
	-855.1,445.3 "/>
<polygon class="st1" points="-662.9,636.3 -719.9,636.3 -719.9,613.2 -686,613.2 -686,468.4 -719.5,468.4 -719.5,445.3 
	-662.9,445.3 "/>
</svg>
